<mxfile host="Electron" agent="Mozilla/5.0 (X11; Linux x86_64) AppleWebKit/537.36 (KHTML, like Gecko) draw.io/26.2.2 Chrome/134.0.6998.178 Electron/35.1.2 Safari/537.36" version="26.2.2">
  <diagram name="Page-1" id="ZSI8Vbspt9aphsIW4GZw">
    <mxGraphModel dx="1428" dy="839" grid="1" gridSize="10" guides="1" tooltips="1" connect="1" arrows="1" fold="1" page="1" pageScale="1" pageWidth="1169" pageHeight="827" math="0" shadow="0">
      <root>
        <mxCell id="0" />
        <mxCell id="1" parent="0" />
        <mxCell id="RfWu--E59PCsdxeacnuJ-4" value="&lt;font style=&quot;font-size: 14px;&quot;&gt;&lt;b style=&quot;&quot;&gt;HARDWARE&lt;/b&gt;&lt;/font&gt;" style="rounded=0;whiteSpace=wrap;html=1;" vertex="1" parent="1">
          <mxGeometry x="132.5" y="250" width="470" height="310" as="geometry" />
        </mxCell>
        <mxCell id="RfWu--E59PCsdxeacnuJ-1" value="PmodCLP IP" style="rounded=1;whiteSpace=wrap;html=1;" vertex="1" parent="1">
          <mxGeometry x="150" y="300" width="120" height="60" as="geometry" />
        </mxCell>
        <mxCell id="RfWu--E59PCsdxeacnuJ-2" value="PmodMAXSONAR IP" style="rounded=1;whiteSpace=wrap;html=1;" vertex="1" parent="1">
          <mxGeometry x="465" y="300" width="120" height="60" as="geometry" />
        </mxCell>
        <mxCell id="RfWu--E59PCsdxeacnuJ-5" value="&lt;b&gt;&lt;font style=&quot;font-size: 14px;&quot;&gt;KOMPONENTEN&lt;/font&gt;&lt;/b&gt;" style="rounded=0;whiteSpace=wrap;html=1;" vertex="1" parent="1">
          <mxGeometry x="132.5" y="30" width="467.5" height="160" as="geometry" />
        </mxCell>
        <mxCell id="RfWu--E59PCsdxeacnuJ-6" value="Basisplattform" style="rounded=1;whiteSpace=wrap;html=1;" vertex="1" parent="1">
          <mxGeometry x="307.5" y="450" width="120" height="60" as="geometry" />
        </mxCell>
        <mxCell id="RfWu--E59PCsdxeacnuJ-8" value="PmodCLP" style="rounded=1;whiteSpace=wrap;html=1;" vertex="1" parent="1">
          <mxGeometry x="465" y="80" width="120" height="60" as="geometry" />
        </mxCell>
        <mxCell id="RfWu--E59PCsdxeacnuJ-9" value="PmodMAXSONAR" style="rounded=1;whiteSpace=wrap;html=1;" vertex="1" parent="1">
          <mxGeometry x="150" y="80" width="120" height="60" as="geometry" />
        </mxCell>
        <mxCell id="RfWu--E59PCsdxeacnuJ-10" style="edgeStyle=orthogonalEdgeStyle;rounded=0;orthogonalLoop=1;jettySize=auto;html=1;exitX=0.5;exitY=1;exitDx=0;exitDy=0;" edge="1" parent="1" source="RfWu--E59PCsdxeacnuJ-5" target="RfWu--E59PCsdxeacnuJ-5">
          <mxGeometry relative="1" as="geometry" />
        </mxCell>
        <mxCell id="RfWu--E59PCsdxeacnuJ-11" value="&lt;font style=&quot;font-size: 14px;&quot;&gt;&lt;b&gt;SOFTWARE-STACK&lt;/b&gt;&lt;/font&gt;" style="rounded=0;whiteSpace=wrap;html=1;" vertex="1" parent="1">
          <mxGeometry x="640" y="250" width="360" height="310" as="geometry" />
        </mxCell>
        <mxCell id="RfWu--E59PCsdxeacnuJ-14" value="Fabian Becker&lt;div&gt;&lt;br&gt;&lt;/div&gt;&lt;div&gt;Jendrik JÃ¼rgens&lt;/div&gt;&lt;div&gt;&lt;br&gt;&lt;/div&gt;&lt;div&gt;Nicolas Koch&lt;/div&gt;&lt;div&gt;&lt;br&gt;&lt;/div&gt;&lt;div&gt;Franz Krempl&lt;/div&gt;&lt;div&gt;&lt;br&gt;&lt;/div&gt;&lt;div&gt;Daniel Sowada&lt;/div&gt;&lt;div&gt;&lt;br&gt;&lt;/div&gt;&lt;div&gt;Michael Specht&lt;/div&gt;" style="text;html=1;align=center;verticalAlign=middle;resizable=0;points=[];autosize=1;strokeColor=none;fillColor=none;" vertex="1" parent="1">
          <mxGeometry x="850" y="20" width="110" height="170" as="geometry" />
        </mxCell>
        <mxCell id="RfWu--E59PCsdxeacnuJ-15" value="" style="ellipse;whiteSpace=wrap;html=1;aspect=fixed;fillColor=#fad7ac;strokeColor=#b46504;" vertex="1" parent="1">
          <mxGeometry x="980" y="80" width="20" height="20" as="geometry" />
        </mxCell>
        <mxCell id="RfWu--E59PCsdxeacnuJ-16" value="" style="ellipse;whiteSpace=wrap;html=1;aspect=fixed;fillColor=#ffcd28;strokeColor=#d79b00;gradientColor=#ffa500;" vertex="1" parent="1">
          <mxGeometry x="980" y="110" width="20" height="20" as="geometry" />
        </mxCell>
        <mxCell id="RfWu--E59PCsdxeacnuJ-17" value="" style="ellipse;whiteSpace=wrap;html=1;aspect=fixed;fillColor=#e6d0de;gradientColor=#d5739d;strokeColor=#996185;" vertex="1" parent="1">
          <mxGeometry x="980" y="140" width="20" height="20" as="geometry" />
        </mxCell>
        <mxCell id="RfWu--E59PCsdxeacnuJ-20" value="" style="ellipse;whiteSpace=wrap;html=1;aspect=fixed;fillColor=#a20025;fontColor=#ffffff;strokeColor=#6F0000;" vertex="1" parent="1">
          <mxGeometry x="980" y="50" width="20" height="20" as="geometry" />
        </mxCell>
        <mxCell id="RfWu--E59PCsdxeacnuJ-21" value="" style="ellipse;whiteSpace=wrap;html=1;aspect=fixed;fillColor=#60a917;fontColor=#ffffff;strokeColor=#2D7600;" vertex="1" parent="1">
          <mxGeometry x="980" y="20" width="20" height="20" as="geometry" />
        </mxCell>
        <mxCell id="RfWu--E59PCsdxeacnuJ-23" value="" style="ellipse;whiteSpace=wrap;html=1;aspect=fixed;fillColor=#0050ef;fontColor=#ffffff;strokeColor=#001DBC;" vertex="1" parent="1">
          <mxGeometry x="980" y="170" width="20" height="20" as="geometry" />
        </mxCell>
      </root>
    </mxGraphModel>
  </diagram>
</mxfile>
